<svg xmlns="http://www.w3.org/2000/svg" width="282" height="308" viewBox="0 0 282 308" role="img" aria-labelledby="title desc">
<style><![CDATA[.bg{fill:#0b1120}.text{fill:#e5e7eb;font:600 14px system-ui,-apple-system,Segoe UI,sans-serif}.muted{fill:#9ca3af;font:500 12px system-ui,-apple-system,Segoe UI,sans-serif}.tiny{fill:#9ca3af;font:500 10px system-ui,-apple-system,Segoe UI,sans-serif}.cell{stroke:#111827;stroke-width:1}.month{fill:#cbd5e1;font:700 11px system-ui,-apple-system,Segoe UI,sans-serif}]]></style>
<title id="title">Kettlebell calendar heat map</title>
<desc id="desc">9 sessions across 9 active days from 2026-04-03 to 2026-05-23.</desc>
<rect class="bg" width="282" height="308" rx="18"/>
<text class="text" x="24" y="30">Kettlebell consistency</text>
<text class="muted" x="24" y="51">2026-04-03 → 2026-05-23 · 9 sessions · 9 active days</text>
<text class="month" x="72" y="56">Apr</text>
<text class="month" x="160" y="56">May</text>
<text class="tiny" x="24" y="85">Mon</text>
<text class="tiny" x="24" y="107">Tue</text>
<text class="tiny" x="24" y="129">Wed</text>
<text class="tiny" x="24" y="151">Thu</text>
<text class="tiny" x="24" y="173">Fri</text>
<text class="tiny" x="24" y="195">Sat</text>
<text class="tiny" x="24" y="217">Sun</text>
<rect class="cell" x="72" y="72" width="18" height="18" rx="4" fill="#1f2937" opacity="0.35"><title>2026-03-30: 0 session(s); none</title></rect>
<rect class="cell" x="72" y="94" width="18" height="18" rx="4" fill="#1f2937" opacity="0.35"><title>2026-03-31: 0 session(s); none</title></rect>
<rect class="cell" x="72" y="116" width="18" height="18" rx="4" fill="#1f2937" opacity="0.35"><title>2026-04-01: 0 session(s); none</title></rect>
<rect class="cell" x="72" y="138" width="18" height="18" rx="4" fill="#1f2937" opacity="0.35"><title>2026-04-02: 0 session(s); none</title></rect>
<rect class="cell" x="72" y="160" width="18" height="18" rx="4" fill="#14532d" opacity="1"><title>2026-04-03: 1 session(s); pull_lower_focus</title></rect>
<rect class="cell" x="72" y="182" width="18" height="18" rx="4" fill="#1f2937" opacity="1"><title>2026-04-04: 0 session(s); none</title></rect>
<rect class="cell" x="72" y="204" width="18" height="18" rx="4" fill="#1f2937" opacity="1"><title>2026-04-05: 0 session(s); none</title></rect>
<rect class="cell" x="94" y="72" width="18" height="18" rx="4" fill="#1f2937" opacity="1"><title>2026-04-06: 0 session(s); none</title></rect>
<rect class="cell" x="94" y="94" width="18" height="18" rx="4" fill="#1f2937" opacity="1"><title>2026-04-07: 0 session(s); none</title></rect>
<rect class="cell" x="94" y="116" width="18" height="18" rx="4" fill="#1f2937" opacity="1"><title>2026-04-08: 0 session(s); none</title></rect>
<rect class="cell" x="94" y="138" width="18" height="18" rx="4" fill="#1f2937" opacity="1"><title>2026-04-09: 0 session(s); none</title></rect>
<rect class="cell" x="94" y="160" width="18" height="18" rx="4" fill="#1f2937" opacity="1"><title>2026-04-10: 0 session(s); none</title></rect>
<rect class="cell" x="94" y="182" width="18" height="18" rx="4" fill="#1f2937" opacity="1"><title>2026-04-11: 0 session(s); none</title></rect>
<rect class="cell" x="94" y="204" width="18" height="18" rx="4" fill="#14532d" opacity="1"><title>2026-04-12: 1 session(s); push_upper_focus</title></rect>
<rect class="cell" x="116" y="72" width="18" height="18" rx="4" fill="#1f2937" opacity="1"><title>2026-04-13: 0 session(s); none</title></rect>
<rect class="cell" x="116" y="94" width="18" height="18" rx="4" fill="#1f2937" opacity="1"><title>2026-04-14: 0 session(s); none</title></rect>
<rect class="cell" x="116" y="116" width="18" height="18" rx="4" fill="#1f2937" opacity="1"><title>2026-04-15: 0 session(s); none</title></rect>
<rect class="cell" x="116" y="138" width="18" height="18" rx="4" fill="#1f2937" opacity="1"><title>2026-04-16: 0 session(s); none</title></rect>
<rect class="cell" x="116" y="160" width="18" height="18" rx="4" fill="#1f2937" opacity="1"><title>2026-04-17: 0 session(s); none</title></rect>
<rect class="cell" x="116" y="182" width="18" height="18" rx="4" fill="#1f2937" opacity="1"><title>2026-04-18: 0 session(s); none</title></rect>
<rect class="cell" x="116" y="204" width="18" height="18" rx="4" fill="#1f2937" opacity="1"><title>2026-04-19: 0 session(s); none</title></rect>
<rect class="cell" x="138" y="72" width="18" height="18" rx="4" fill="#1f2937" opacity="1"><title>2026-04-20: 0 session(s); none</title></rect>
<rect class="cell" x="138" y="94" width="18" height="18" rx="4" fill="#1f2937" opacity="1"><title>2026-04-21: 0 session(s); none</title></rect>
<rect class="cell" x="138" y="116" width="18" height="18" rx="4" fill="#1f2937" opacity="1"><title>2026-04-22: 0 session(s); none</title></rect>
<rect class="cell" x="138" y="138" width="18" height="18" rx="4" fill="#1f2937" opacity="1"><title>2026-04-23: 0 session(s); none</title></rect>
<rect class="cell" x="138" y="160" width="18" height="18" rx="4" fill="#1f2937" opacity="1"><title>2026-04-24: 0 session(s); none</title></rect>
<rect class="cell" x="138" y="182" width="18" height="18" rx="4" fill="#1f2937" opacity="1"><title>2026-04-25: 0 session(s); none</title></rect>
<rect class="cell" x="138" y="204" width="18" height="18" rx="4" fill="#1f2937" opacity="1"><title>2026-04-26: 0 session(s); none</title></rect>
<rect class="cell" x="160" y="72" width="18" height="18" rx="4" fill="#14532d" opacity="1"><title>2026-04-27: 1 session(s); full_circuit</title></rect>
<rect class="cell" x="160" y="94" width="18" height="18" rx="4" fill="#1f2937" opacity="1"><title>2026-04-28: 0 session(s); none</title></rect>
<rect class="cell" x="160" y="116" width="18" height="18" rx="4" fill="#14532d" opacity="1"><title>2026-04-29: 1 session(s); snatch_ballistic</title></rect>
<rect class="cell" x="160" y="138" width="18" height="18" rx="4" fill="#1f2937" opacity="1"><title>2026-04-30: 0 session(s); none</title></rect>
<rect class="cell" x="160" y="160" width="18" height="18" rx="4" fill="#1f2937" opacity="1"><title>2026-05-01: 0 session(s); none</title></rect>
<rect class="cell" x="160" y="182" width="18" height="18" rx="4" fill="#1f2937" opacity="1"><title>2026-05-02: 0 session(s); none</title></rect>
<rect class="cell" x="160" y="204" width="18" height="18" rx="4" fill="#1f2937" opacity="1"><title>2026-05-03: 0 session(s); none</title></rect>
<rect class="cell" x="182" y="72" width="18" height="18" rx="4" fill="#14532d" opacity="1"><title>2026-05-04: 1 session(s); push_pull</title></rect>
<rect class="cell" x="182" y="94" width="18" height="18" rx="4" fill="#1f2937" opacity="1"><title>2026-05-05: 0 session(s); none</title></rect>
<rect class="cell" x="182" y="116" width="18" height="18" rx="4" fill="#1f2937" opacity="1"><title>2026-05-06: 0 session(s); none</title></rect>
<rect class="cell" x="182" y="138" width="18" height="18" rx="4" fill="#1f2937" opacity="1"><title>2026-05-07: 0 session(s); none</title></rect>
<rect class="cell" x="182" y="160" width="18" height="18" rx="4" fill="#1f2937" opacity="1"><title>2026-05-08: 0 session(s); none</title></rect>
<rect class="cell" x="182" y="182" width="18" height="18" rx="4" fill="#14532d" opacity="1"><title>2026-05-09: 1 session(s); press_focus</title></rect>
<rect class="cell" x="182" y="204" width="18" height="18" rx="4" fill="#1f2937" opacity="1"><title>2026-05-10: 0 session(s); none</title></rect>
<rect class="cell" x="204" y="72" width="18" height="18" rx="4" fill="#1f2937" opacity="1"><title>2026-05-11: 0 session(s); none</title></rect>
<rect class="cell" x="204" y="94" width="18" height="18" rx="4" fill="#1f2937" opacity="1"><title>2026-05-12: 0 session(s); none</title></rect>
<rect class="cell" x="204" y="116" width="18" height="18" rx="4" fill="#1f2937" opacity="1"><title>2026-05-13: 0 session(s); none</title></rect>
<rect class="cell" x="204" y="138" width="18" height="18" rx="4" fill="#1f2937" opacity="1"><title>2026-05-14: 0 session(s); none</title></rect>
<rect class="cell" x="204" y="160" width="18" height="18" rx="4" fill="#14532d" opacity="1"><title>2026-05-15: 1 session(s); snatch_ballistic</title></rect>
<rect class="cell" x="204" y="182" width="18" height="18" rx="4" fill="#1f2937" opacity="1"><title>2026-05-16: 0 session(s); none</title></rect>
<rect class="cell" x="204" y="204" width="18" height="18" rx="4" fill="#1f2937" opacity="1"><title>2026-05-17: 0 session(s); none</title></rect>
<rect class="cell" x="226" y="72" width="18" height="18" rx="4" fill="#14532d" opacity="1"><title>2026-05-18: 1 session(s); push_pull</title></rect>
<rect class="cell" x="226" y="94" width="18" height="18" rx="4" fill="#1f2937" opacity="1"><title>2026-05-19: 0 session(s); none</title></rect>
<rect class="cell" x="226" y="116" width="18" height="18" rx="4" fill="#1f2937" opacity="1"><title>2026-05-20: 0 session(s); none</title></rect>
<rect class="cell" x="226" y="138" width="18" height="18" rx="4" fill="#1f2937" opacity="1"><title>2026-05-21: 0 session(s); none</title></rect>
<rect class="cell" x="226" y="160" width="18" height="18" rx="4" fill="#1f2937" opacity="1"><title>2026-05-22: 0 session(s); none</title></rect>
<rect class="cell" x="226" y="182" width="18" height="18" rx="4" fill="#14532d" opacity="1"><title>2026-05-23: 1 session(s); press_focus</title></rect>
<rect class="cell" x="226" y="204" width="18" height="18" rx="4" fill="#1f2937" opacity="0.35"><title>2026-05-24: 0 session(s); none</title></rect>
<text class="muted" x="72" y="266">Less</text>
<rect class="cell" x="108" y="253" width="18" height="18" rx="4" fill="#1f2937"/>
<rect class="cell" x="130" y="253" width="18" height="18" rx="4" fill="#14532d"/>
<rect class="cell" x="152" y="253" width="18" height="18" rx="4" fill="#15803d"/>
<rect class="cell" x="174" y="253" width="18" height="18" rx="4" fill="#22c55e"/>
<rect class="cell" x="196" y="253" width="18" height="18" rx="4" fill="#86efac"/>
<text class="muted" x="224" y="266">More</text>
<text class="muted" x="24" y="290">Darker = no workout. Green intensity = sessions that day.</text>
</svg>