<svg xmlns="http://www.w3.org/2000/svg" width="760" height="338" viewBox="0 0 760 338" role="img" aria-labelledby="title desc">
<style><![CDATA[.bg{fill:#0b1120}.text{fill:#e5e7eb;font:700 24px system-ui,-apple-system,Segoe UI,sans-serif}.muted{fill:#9ca3af;font:500 15px system-ui,-apple-system,Segoe UI,sans-serif}.tiny{fill:#9ca3af;font:600 13px system-ui,-apple-system,Segoe UI,sans-serif}.cell{stroke:#111827;stroke-width:1}.month{fill:#cbd5e1;font:700 13px system-ui,-apple-system,Segoe UI,sans-serif}]]></style>
<title id="title">Kettlebell calendar heat map</title>
<desc id="desc">30 sessions across 30 active days from 2026-04-03 to 2026-07-12.</desc>
<rect class="bg" width="760" height="338" rx="18"/>
<text class="text" x="24" y="34">Kettlebell consistency</text>
<text class="muted" x="24" y="62">2026-04-03 → 2026-07-12</text>
<text class="muted" x="24" y="84">30 sessions · 30 active days</text>
<text class="month" x="72" y="94">Apr</text>
<text class="month" x="160" y="94">May</text>
<text class="month" x="270" y="94">Jun</text>
<text class="month" x="358" y="94">Jul</text>
<text class="tiny" x="24" y="125">Mon</text>
<text class="tiny" x="24" y="147">Tue</text>
<text class="tiny" x="24" y="169">Wed</text>
<text class="tiny" x="24" y="191">Thu</text>
<text class="tiny" x="24" y="213">Fri</text>
<text class="tiny" x="24" y="235">Sat</text>
<text class="tiny" x="24" y="257">Sun</text>
<rect class="cell" x="72" y="112" width="18" height="18" rx="4" fill="#1f2937" opacity="0.35"><title>2026-03-30: 0 session(s); none</title></rect>
<rect class="cell" x="72" y="134" width="18" height="18" rx="4" fill="#1f2937" opacity="0.35"><title>2026-03-31: 0 session(s); none</title></rect>
<rect class="cell" x="72" y="156" width="18" height="18" rx="4" fill="#1f2937" opacity="0.35"><title>2026-04-01: 0 session(s); none</title></rect>
<rect class="cell" x="72" y="178" width="18" height="18" rx="4" fill="#1f2937" opacity="0.35"><title>2026-04-02: 0 session(s); none</title></rect>
<rect class="cell" x="72" y="200" width="18" height="18" rx="4" fill="#22c55e" opacity="1"><title>2026-04-03: 1 session(s); pull_lower_focus</title></rect>
<rect class="cell" x="72" y="222" width="18" height="18" rx="4" fill="#1f2937" opacity="1"><title>2026-04-04: 0 session(s); none</title></rect>
<rect class="cell" x="72" y="244" width="18" height="18" rx="4" fill="#1f2937" opacity="1"><title>2026-04-05: 0 session(s); none</title></rect>
<rect class="cell" x="94" y="112" width="18" height="18" rx="4" fill="#1f2937" opacity="1"><title>2026-04-06: 0 session(s); none</title></rect>
<rect class="cell" x="94" y="134" width="18" height="18" rx="4" fill="#1f2937" opacity="1"><title>2026-04-07: 0 session(s); none</title></rect>
<rect class="cell" x="94" y="156" width="18" height="18" rx="4" fill="#1f2937" opacity="1"><title>2026-04-08: 0 session(s); none</title></rect>
<rect class="cell" x="94" y="178" width="18" height="18" rx="4" fill="#1f2937" opacity="1"><title>2026-04-09: 0 session(s); none</title></rect>
<rect class="cell" x="94" y="200" width="18" height="18" rx="4" fill="#1f2937" opacity="1"><title>2026-04-10: 0 session(s); none</title></rect>
<rect class="cell" x="94" y="222" width="18" height="18" rx="4" fill="#1f2937" opacity="1"><title>2026-04-11: 0 session(s); none</title></rect>
<rect class="cell" x="94" y="244" width="18" height="18" rx="4" fill="#22c55e" opacity="1"><title>2026-04-12: 1 session(s); push_upper_focus</title></rect>
<rect class="cell" x="116" y="112" width="18" height="18" rx="4" fill="#1f2937" opacity="1"><title>2026-04-13: 0 session(s); none</title></rect>
<rect class="cell" x="116" y="134" width="18" height="18" rx="4" fill="#1f2937" opacity="1"><title>2026-04-14: 0 session(s); none</title></rect>
<rect class="cell" x="116" y="156" width="18" height="18" rx="4" fill="#1f2937" opacity="1"><title>2026-04-15: 0 session(s); none</title></rect>
<rect class="cell" x="116" y="178" width="18" height="18" rx="4" fill="#1f2937" opacity="1"><title>2026-04-16: 0 session(s); none</title></rect>
<rect class="cell" x="116" y="200" width="18" height="18" rx="4" fill="#1f2937" opacity="1"><title>2026-04-17: 0 session(s); none</title></rect>
<rect class="cell" x="116" y="222" width="18" height="18" rx="4" fill="#1f2937" opacity="1"><title>2026-04-18: 0 session(s); none</title></rect>
<rect class="cell" x="116" y="244" width="18" height="18" rx="4" fill="#1f2937" opacity="1"><title>2026-04-19: 0 session(s); none</title></rect>
<rect class="cell" x="138" y="112" width="18" height="18" rx="4" fill="#1f2937" opacity="1"><title>2026-04-20: 0 session(s); none</title></rect>
<rect class="cell" x="138" y="134" width="18" height="18" rx="4" fill="#1f2937" opacity="1"><title>2026-04-21: 0 session(s); none</title></rect>
<rect class="cell" x="138" y="156" width="18" height="18" rx="4" fill="#1f2937" opacity="1"><title>2026-04-22: 0 session(s); none</title></rect>
<rect class="cell" x="138" y="178" width="18" height="18" rx="4" fill="#1f2937" opacity="1"><title>2026-04-23: 0 session(s); none</title></rect>
<rect class="cell" x="138" y="200" width="18" height="18" rx="4" fill="#1f2937" opacity="1"><title>2026-04-24: 0 session(s); none</title></rect>
<rect class="cell" x="138" y="222" width="18" height="18" rx="4" fill="#1f2937" opacity="1"><title>2026-04-25: 0 session(s); none</title></rect>
<rect class="cell" x="138" y="244" width="18" height="18" rx="4" fill="#1f2937" opacity="1"><title>2026-04-26: 0 session(s); none</title></rect>
<rect class="cell" x="160" y="112" width="18" height="18" rx="4" fill="#22c55e" opacity="1"><title>2026-04-27: 1 session(s); full_circuit</title></rect>
<rect class="cell" x="160" y="134" width="18" height="18" rx="4" fill="#1f2937" opacity="1"><title>2026-04-28: 0 session(s); none</title></rect>
<rect class="cell" x="160" y="156" width="18" height="18" rx="4" fill="#22c55e" opacity="1"><title>2026-04-29: 1 session(s); snatch_ballistic</title></rect>
<rect class="cell" x="160" y="178" width="18" height="18" rx="4" fill="#1f2937" opacity="1"><title>2026-04-30: 0 session(s); none</title></rect>
<rect class="cell" x="160" y="200" width="18" height="18" rx="4" fill="#1f2937" opacity="1"><title>2026-05-01: 0 session(s); none</title></rect>
<rect class="cell" x="160" y="222" width="18" height="18" rx="4" fill="#1f2937" opacity="1"><title>2026-05-02: 0 session(s); none</title></rect>
<rect class="cell" x="160" y="244" width="18" height="18" rx="4" fill="#1f2937" opacity="1"><title>2026-05-03: 0 session(s); none</title></rect>
<rect class="cell" x="182" y="112" width="18" height="18" rx="4" fill="#22c55e" opacity="1"><title>2026-05-04: 1 session(s); push_pull</title></rect>
<rect class="cell" x="182" y="134" width="18" height="18" rx="4" fill="#1f2937" opacity="1"><title>2026-05-05: 0 session(s); none</title></rect>
<rect class="cell" x="182" y="156" width="18" height="18" rx="4" fill="#1f2937" opacity="1"><title>2026-05-06: 0 session(s); none</title></rect>
<rect class="cell" x="182" y="178" width="18" height="18" rx="4" fill="#1f2937" opacity="1"><title>2026-05-07: 0 session(s); none</title></rect>
<rect class="cell" x="182" y="200" width="18" height="18" rx="4" fill="#1f2937" opacity="1"><title>2026-05-08: 0 session(s); none</title></rect>
<rect class="cell" x="182" y="222" width="18" height="18" rx="4" fill="#22c55e" opacity="1"><title>2026-05-09: 1 session(s); press_focus</title></rect>
<rect class="cell" x="182" y="244" width="18" height="18" rx="4" fill="#1f2937" opacity="1"><title>2026-05-10: 0 session(s); none</title></rect>
<rect class="cell" x="204" y="112" width="18" height="18" rx="4" fill="#1f2937" opacity="1"><title>2026-05-11: 0 session(s); none</title></rect>
<rect class="cell" x="204" y="134" width="18" height="18" rx="4" fill="#1f2937" opacity="1"><title>2026-05-12: 0 session(s); none</title></rect>
<rect class="cell" x="204" y="156" width="18" height="18" rx="4" fill="#1f2937" opacity="1"><title>2026-05-13: 0 session(s); none</title></rect>
<rect class="cell" x="204" y="178" width="18" height="18" rx="4" fill="#1f2937" opacity="1"><title>2026-05-14: 0 session(s); none</title></rect>
<rect class="cell" x="204" y="200" width="18" height="18" rx="4" fill="#22c55e" opacity="1"><title>2026-05-15: 1 session(s); snatch_ballistic</title></rect>
<rect class="cell" x="204" y="222" width="18" height="18" rx="4" fill="#1f2937" opacity="1"><title>2026-05-16: 0 session(s); none</title></rect>
<rect class="cell" x="204" y="244" width="18" height="18" rx="4" fill="#1f2937" opacity="1"><title>2026-05-17: 0 session(s); none</title></rect>
<rect class="cell" x="226" y="112" width="18" height="18" rx="4" fill="#22c55e" opacity="1"><title>2026-05-18: 1 session(s); push_pull</title></rect>
<rect class="cell" x="226" y="134" width="18" height="18" rx="4" fill="#1f2937" opacity="1"><title>2026-05-19: 0 session(s); none</title></rect>
<rect class="cell" x="226" y="156" width="18" height="18" rx="4" fill="#1f2937" opacity="1"><title>2026-05-20: 0 session(s); none</title></rect>
<rect class="cell" x="226" y="178" width="18" height="18" rx="4" fill="#1f2937" opacity="1"><title>2026-05-21: 0 session(s); none</title></rect>
<rect class="cell" x="226" y="200" width="18" height="18" rx="4" fill="#1f2937" opacity="1"><title>2026-05-22: 0 session(s); none</title></rect>
<rect class="cell" x="226" y="222" width="18" height="18" rx="4" fill="#22c55e" opacity="1"><title>2026-05-23: 1 session(s); press_focus</title></rect>
<rect class="cell" x="226" y="244" width="18" height="18" rx="4" fill="#22c55e" opacity="1"><title>2026-05-24: 1 session(s); snatch_ballistic</title></rect>
<rect class="cell" x="248" y="112" width="18" height="18" rx="4" fill="#1f2937" opacity="1"><title>2026-05-25: 0 session(s); none</title></rect>
<rect class="cell" x="248" y="134" width="18" height="18" rx="4" fill="#1f2937" opacity="1"><title>2026-05-26: 0 session(s); none</title></rect>
<rect class="cell" x="248" y="156" width="18" height="18" rx="4" fill="#1f2937" opacity="1"><title>2026-05-27: 0 session(s); none</title></rect>
<rect class="cell" x="248" y="178" width="18" height="18" rx="4" fill="#1f2937" opacity="1"><title>2026-05-28: 0 session(s); none</title></rect>
<rect class="cell" x="248" y="200" width="18" height="18" rx="4" fill="#22c55e" opacity="1"><title>2026-05-29: 1 session(s); push_pull</title></rect>
<rect class="cell" x="248" y="222" width="18" height="18" rx="4" fill="#22c55e" opacity="1"><title>2026-05-30: 1 session(s); full_circuit</title></rect>
<rect class="cell" x="248" y="244" width="18" height="18" rx="4" fill="#22c55e" opacity="1"><title>2026-05-31: 1 session(s); press_focus</title></rect>
<rect class="cell" x="270" y="112" width="18" height="18" rx="4" fill="#1f2937" opacity="1"><title>2026-06-01: 0 session(s); none</title></rect>
<rect class="cell" x="270" y="134" width="18" height="18" rx="4" fill="#1f2937" opacity="1"><title>2026-06-02: 0 session(s); none</title></rect>
<rect class="cell" x="270" y="156" width="18" height="18" rx="4" fill="#1f2937" opacity="1"><title>2026-06-03: 0 session(s); none</title></rect>
<rect class="cell" x="270" y="178" width="18" height="18" rx="4" fill="#22c55e" opacity="1"><title>2026-06-04: 1 session(s); full_circuit</title></rect>
<rect class="cell" x="270" y="200" width="18" height="18" rx="4" fill="#22c55e" opacity="1"><title>2026-06-05: 1 session(s); push_pull</title></rect>
<rect class="cell" x="270" y="222" width="18" height="18" rx="4" fill="#1f2937" opacity="1"><title>2026-06-06: 0 session(s); none</title></rect>
<rect class="cell" x="270" y="244" width="18" height="18" rx="4" fill="#22c55e" opacity="1"><title>2026-06-07: 1 session(s); snatch_ballistic</title></rect>
<rect class="cell" x="292" y="112" width="18" height="18" rx="4" fill="#1f2937" opacity="1"><title>2026-06-08: 0 session(s); none</title></rect>
<rect class="cell" x="292" y="134" width="18" height="18" rx="4" fill="#22c55e" opacity="1"><title>2026-06-09: 1 session(s); press_focus</title></rect>
<rect class="cell" x="292" y="156" width="18" height="18" rx="4" fill="#1f2937" opacity="1"><title>2026-06-10: 0 session(s); none</title></rect>
<rect class="cell" x="292" y="178" width="18" height="18" rx="4" fill="#22c55e" opacity="1"><title>2026-06-11: 1 session(s); full_circuit</title></rect>
<rect class="cell" x="292" y="200" width="18" height="18" rx="4" fill="#1f2937" opacity="1"><title>2026-06-12: 0 session(s); none</title></rect>
<rect class="cell" x="292" y="222" width="18" height="18" rx="4" fill="#1f2937" opacity="1"><title>2026-06-13: 0 session(s); none</title></rect>
<rect class="cell" x="292" y="244" width="18" height="18" rx="4" fill="#1f2937" opacity="1"><title>2026-06-14: 0 session(s); none</title></rect>
<rect class="cell" x="314" y="112" width="18" height="18" rx="4" fill="#1f2937" opacity="1"><title>2026-06-15: 0 session(s); none</title></rect>
<rect class="cell" x="314" y="134" width="18" height="18" rx="4" fill="#1f2937" opacity="1"><title>2026-06-16: 0 session(s); none</title></rect>
<rect class="cell" x="314" y="156" width="18" height="18" rx="4" fill="#1f2937" opacity="1"><title>2026-06-17: 0 session(s); none</title></rect>
<rect class="cell" x="314" y="178" width="18" height="18" rx="4" fill="#22c55e" opacity="1"><title>2026-06-18: 1 session(s); push_pull</title></rect>
<rect class="cell" x="314" y="200" width="18" height="18" rx="4" fill="#1f2937" opacity="1"><title>2026-06-19: 0 session(s); none</title></rect>
<rect class="cell" x="314" y="222" width="18" height="18" rx="4" fill="#22c55e" opacity="1"><title>2026-06-20: 1 session(s); press_focus</title></rect>
<rect class="cell" x="314" y="244" width="18" height="18" rx="4" fill="#1f2937" opacity="1"><title>2026-06-21: 0 session(s); none</title></rect>
<rect class="cell" x="336" y="112" width="18" height="18" rx="4" fill="#22c55e" opacity="1"><title>2026-06-22: 1 session(s); snatch_ballistic</title></rect>
<rect class="cell" x="336" y="134" width="18" height="18" rx="4" fill="#1f2937" opacity="1"><title>2026-06-23: 0 session(s); none</title></rect>
<rect class="cell" x="336" y="156" width="18" height="18" rx="4" fill="#22c55e" opacity="1"><title>2026-06-24: 1 session(s); push_pull</title></rect>
<rect class="cell" x="336" y="178" width="18" height="18" rx="4" fill="#1f2937" opacity="1"><title>2026-06-25: 0 session(s); none</title></rect>
<rect class="cell" x="336" y="200" width="18" height="18" rx="4" fill="#1f2937" opacity="1"><title>2026-06-26: 0 session(s); none</title></rect>
<rect class="cell" x="336" y="222" width="18" height="18" rx="4" fill="#22c55e" opacity="1"><title>2026-06-27: 1 session(s); balanced_full_body</title></rect>
<rect class="cell" x="336" y="244" width="18" height="18" rx="4" fill="#1f2937" opacity="1"><title>2026-06-28: 0 session(s); none</title></rect>
<rect class="cell" x="358" y="112" width="18" height="18" rx="4" fill="#1f2937" opacity="1"><title>2026-06-29: 0 session(s); none</title></rect>
<rect class="cell" x="358" y="134" width="18" height="18" rx="4" fill="#22c55e" opacity="1"><title>2026-06-30: 1 session(s); knee_cautious_legs_core</title></rect>
<rect class="cell" x="358" y="156" width="18" height="18" rx="4" fill="#1f2937" opacity="1"><title>2026-07-01: 0 session(s); none</title></rect>
<rect class="cell" x="358" y="178" width="18" height="18" rx="4" fill="#22c55e" opacity="1"><title>2026-07-02: 1 session(s); athletic_power_capped</title></rect>
<rect class="cell" x="358" y="200" width="18" height="18" rx="4" fill="#1f2937" opacity="1"><title>2026-07-03: 0 session(s); none</title></rect>
<rect class="cell" x="358" y="222" width="18" height="18" rx="4" fill="#22c55e" opacity="1"><title>2026-07-04: 1 session(s); controlled_ballistic</title></rect>
<rect class="cell" x="358" y="244" width="18" height="18" rx="4" fill="#1f2937" opacity="1"><title>2026-07-05: 0 session(s); none</title></rect>
<rect class="cell" x="380" y="112" width="18" height="18" rx="4" fill="#22c55e" opacity="1"><title>2026-07-06: 1 session(s); back_sparing_upper_core</title></rect>
<rect class="cell" x="380" y="134" width="18" height="18" rx="4" fill="#1f2937" opacity="1"><title>2026-07-07: 0 session(s); none</title></rect>
<rect class="cell" x="380" y="156" width="18" height="18" rx="4" fill="#22c55e" opacity="1"><title>2026-07-08: 1 session(s); athletic_power_capped</title></rect>
<rect class="cell" x="380" y="178" width="18" height="18" rx="4" fill="#1f2937" opacity="1"><title>2026-07-09: 0 session(s); none</title></rect>
<rect class="cell" x="380" y="200" width="18" height="18" rx="4" fill="#1f2937" opacity="1"><title>2026-07-10: 0 session(s); none</title></rect>
<rect class="cell" x="380" y="222" width="18" height="18" rx="4" fill="#22c55e" opacity="1"><title>2026-07-11: 1 session(s); balanced_full_body</title></rect>
<rect class="cell" x="380" y="244" width="18" height="18" rx="4" fill="#22c55e" opacity="1"><title>2026-07-12: 1 session(s); knee_cautious_legs_core</title></rect>
<rect class="cell" x="72" y="286" width="18" height="18" rx="4" fill="#1f2937"/>
<text class="muted" x="100" y="300">No workout</text>
<rect class="cell" x="214" y="286" width="18" height="18" rx="4" fill="#22c55e"/>
<text class="muted" x="242" y="300">Workout</text>
</svg>